<svg width="53" height="23" viewBox="0 0 53 23" fill="none" xmlns="http://www.w3.org/2000/svg">
<path d="M7.16 0.76V22H0.5V0.76H7.16ZM30.568 0.76L22.948 15.55V22H16.288V15.55L8.66797 0.76H16.288L19.678 8.29L23.068 0.76H30.568Z" fill="#07004D"/>
<path d="M31.482 11.35C31.482 9.25 31.902 7.38 32.742 5.74C33.602 4.1 34.822 2.83 36.402 1.93C37.982 1.01 39.842 0.549999 41.982 0.549999C43.822 0.549999 45.462 0.899999 46.902 1.6C48.362 2.28 49.542 3.25 50.442 4.51C51.362 5.77 51.972 7.24 52.272 8.92H45.252C44.932 8.22 44.472 7.68 43.872 7.3C43.292 6.9 42.622 6.7 41.862 6.7C40.742 6.7 39.852 7.12 39.192 7.96C38.552 8.8 38.232 9.93 38.232 11.35C38.232 12.77 38.552 13.9 39.192 14.74C39.852 15.58 40.742 16 41.862 16C42.622 16 43.292 15.81 43.872 15.43C44.472 15.03 44.932 14.48 45.252 13.78H52.272C51.972 15.46 51.362 16.93 50.442 18.19C49.542 19.45 48.362 20.43 46.902 21.13C45.462 21.81 43.822 22.15 41.982 22.15C39.842 22.15 37.982 21.7 36.402 20.8C34.822 19.88 33.602 18.6 32.742 16.96C31.902 15.32 31.482 13.45 31.482 11.35Z" fill="#256EFF"/>
</svg>
