<svg width="800" height="800" viewBox="0 0 800 800" fill="none" xmlns="http://www.w3.org/2000/svg">
<path d="M400 67.9993C216.667 67.9993 66.6666 217.666 66.6666 402C66.6666 568.667 188.667 707 348 732V498.667H263.333V402H348V328.333C348 244.666 397.667 198.666 474 198.666C510.333 198.666 548.333 204.999 548.333 204.999V287.333H506.333C465 287.333 452 312.999 452 339.333V402H544.667L529.667 498.667H452V732C530.547 719.593 602.073 679.517 653.663 619C705.253 558.487 733.513 481.52 733.333 402C733.333 217.666 583.333 67.9993 400 67.9993Z" fill="#07004D"/>
</svg>
